<svg width="615" height="490" viewBox="0 0 615 490" fill="none" xmlns="http://www.w3.org/2000/svg">
<g clip-path="url(#clip0_655_2613)">
<path d="M545.168 454.483H545.332C548.67 459.135 553.103 460.503 558.521 460.503C561.859 460.503 566.292 458.971 566.292 454.866C566.292 445.18 546.481 446.986 546.481 431.882C546.481 422.743 553.213 418.803 561.366 418.803C563.501 418.803 565.307 419.077 566.675 419.405C568.097 419.679 569.082 420.171 569.63 420.171C570.888 420.171 572.038 419.405 572.694 418.311V432.265C569.794 429.146 567.222 427.723 562.899 427.723C559.998 427.723 556.824 428.763 556.824 432.101C556.824 440.419 576.634 438.996 576.634 454.1C576.634 464.881 568.152 469.423 558.63 469.423C556.824 469.423 554.854 469.04 553.048 468.766C551.133 468.493 549.272 468.11 547.357 468.11C546.591 468.11 545.934 468.383 545.223 469.478H545.059V454.538L545.168 454.483Z" fill="#F08900"/>
<path d="M582.543 454.483H582.707C586.045 459.135 590.478 460.503 595.896 460.503C599.234 460.503 603.667 458.971 603.667 454.867C603.667 445.18 583.856 446.986 583.856 431.882C583.856 422.743 590.588 418.803 598.741 418.803C600.876 418.803 602.682 419.077 604.05 419.405C605.472 419.679 606.457 420.171 607.005 420.171C608.263 420.171 609.413 419.405 610.069 418.311V432.265C607.169 429.146 604.597 427.723 600.274 427.723C597.373 427.723 594.199 428.763 594.199 432.101C594.199 440.419 614.009 438.997 614.009 454.1C614.009 464.881 605.527 469.423 596.005 469.423C594.199 469.423 592.229 469.04 590.423 468.766C588.508 468.493 586.647 468.11 584.732 468.11C583.966 468.11 583.309 468.383 582.598 469.478H582.434V454.538L582.543 454.483Z" fill="#F08900"/>
<path d="M2.13612 434.509C2.13612 432.265 2.13612 430.35 0.494397 428.708C2.79281 428.708 4.27036 428.106 5.80264 427.067C12.5337 422.415 16.0908 418.803 24.6277 418.803C39.5127 418.803 50.7859 429.091 50.7859 445.016C50.7859 459.463 39.3485 469.478 26.16 469.478C20.5782 469.478 15.7077 468.219 11.7128 464.224V485.676C11.7128 487.209 11.9317 488.796 13.7376 490.054H0.111328C1.91722 488.796 2.13612 487.263 2.13612 485.676V434.564V434.509ZM11.7676 454.319C14.3396 455.687 17.6231 459.737 25.3392 459.737C34.5875 459.737 41.2092 454.1 41.2092 444.524C41.2092 434.947 34.095 428.49 24.4636 428.49C19.6478 428.49 14.8321 431.499 11.7676 434.673V454.265V454.319Z" fill="#16978A"/>
<path d="M58.0619 403.152C58.0619 401.62 57.843 400.033 56.0371 398.774H67.6934V423.729C70.7579 420.5 74.5886 418.803 79.2401 418.803C89.3094 418.803 100.473 426.684 100.473 438.668V463.513C100.473 465.045 100.692 466.632 102.498 467.891H88.8716C90.6775 466.632 90.8964 465.1 90.8964 463.513V440.036C90.8964 432.375 85.3145 427.888 78.5835 427.888C74.2603 427.888 70.4296 431.28 67.6934 433.907V463.513C67.6934 465.045 67.8575 466.632 69.7181 467.891H56.0918C57.8977 466.632 58.1166 465.1 58.1166 463.513V403.152H58.0619Z" fill="#16978A"/>
<path d="M149.076 467.891V461.708H148.912C145.245 466.578 139.664 469.478 133.316 469.478C119.689 469.478 108.307 459.19 108.307 445.345C108.307 431.5 118.595 418.858 133.425 418.858C143.713 418.858 147.544 425.152 156.026 428.545C157.011 428.928 158.16 428.928 159.091 428.764C158.106 430.241 157.339 431.007 157.339 432.54V464.827C157.339 466.085 157.723 466.852 159.255 467.946H149.076V467.891ZM147.708 434.729C144.151 431.828 139.226 428.545 134.355 428.545C124.943 428.545 117.938 433.962 117.938 443.867C117.938 453.772 123.903 459.792 134.191 459.792C139.773 459.792 144.753 457.165 147.763 452.733V434.783L147.708 434.729Z" fill="#16978A"/>
<path d="M177.146 426.191H177.365C179.28 422.141 182.946 420.281 188.036 419.515C189.404 419.296 189.787 418.858 190.717 417.873V430.295C189.459 430.076 188.419 430.022 186.503 430.022C183.165 430.022 180.648 433.251 178.35 435.658V463.622C178.35 465.155 178.568 466.742 180.374 468H166.748C168.554 466.742 168.773 465.209 168.773 463.622V424.823C168.773 423.291 168.554 421.704 166.748 420.445H177.2V426.246L177.146 426.191Z" fill="#16978A"/>
<path d="M198.486 433.962C198.486 431.555 197.829 430.186 197.063 428.818C199.088 428.599 200.839 427.669 202.426 426.41C207.515 422.525 212.714 418.858 219.609 418.858C225.574 418.858 231.32 421.595 235.479 426.52C239.31 421.649 245.494 418.858 251.623 418.858C261.692 418.858 272.856 426.739 272.856 438.723V463.568C272.856 465.1 273.075 466.687 274.881 467.946H261.254C263.06 466.687 263.279 465.155 263.279 463.568V440.091C263.279 432.43 258.08 427.943 251.349 427.943C245.603 427.943 240.459 432.868 240.459 438.723V463.568C240.459 465.1 240.678 466.687 242.484 467.946H228.858C230.664 466.687 230.882 465.155 230.882 463.568V440.091C230.882 432.43 225.684 427.943 218.953 427.943C214.629 427.943 210.799 431.336 208.062 433.962V463.568C208.062 465.1 208.281 466.687 210.087 467.946H196.461C198.267 466.687 198.486 465.155 198.486 463.568V433.962Z" fill="#16978A"/>
<path d="M322.986 467.891V461.707H322.822C319.156 466.578 313.574 469.478 307.226 469.478C293.599 469.478 282.217 459.19 282.217 445.345C282.217 431.5 292.505 418.858 307.335 418.858C317.623 418.858 321.454 425.152 329.936 428.545C330.921 428.928 332.07 428.928 333.001 428.764C332.016 430.241 331.25 431.007 331.25 432.539V464.827C331.25 466.085 331.633 466.852 333.165 467.946H322.986V467.891ZM321.618 434.728C318.061 431.828 313.136 428.545 308.266 428.545C298.853 428.545 291.848 433.962 291.848 443.867C291.848 453.772 297.813 459.792 308.101 459.792C313.683 459.792 318.663 457.165 321.673 452.733V434.783L321.618 434.728Z" fill="#16978A"/>
<path d="M382.742 467.891V461.707H382.523C378.857 466.578 373.275 469.478 366.927 469.478C353.301 469.478 341.918 459.19 341.918 445.345C341.918 431.499 352.206 418.858 367.036 418.858C377.324 418.858 381.155 425.151 389.637 428.544C390.622 428.927 391.772 428.927 392.702 428.763C391.717 430.241 390.951 431.007 390.951 432.539V464.826C390.951 466.085 391.334 466.851 392.866 467.946H382.687L382.742 467.891ZM381.374 434.728C377.817 431.828 372.892 428.544 368.021 428.544C358.609 428.544 351.604 433.962 351.604 443.867C351.604 453.772 357.569 459.792 367.857 459.792C373.439 459.792 378.419 457.165 381.429 452.732V434.783L381.374 434.728Z" fill="#F08900"/>
<path d="M437.138 469.15C436.864 468.876 436.536 468.548 436.262 468.383C435.879 468.164 435.606 468.11 435.113 468.11C434.238 468.11 432.596 468.383 430.899 468.767C429.258 469.04 427.561 469.423 426.467 469.423C412.403 469.423 400.418 458.861 400.418 444.797C400.418 430.733 411.965 418.803 426.467 418.803C428.108 418.803 429.805 419.186 431.282 419.46C432.705 419.734 433.964 420.117 434.621 420.117C435.879 420.117 436.426 419.898 436.919 418.749H437.138V432.649H436.919C434.73 429.748 429.914 427.723 426.412 427.723C416.89 427.723 409.995 435.604 409.995 444.797C409.995 453.991 418.477 460.503 426.412 460.503C430.735 460.503 434.785 458.478 437.083 455.359V469.15H437.138Z" fill="#F08900"/>
<path d="M479.823 469.148C479.55 468.875 479.221 468.546 478.948 468.382C478.565 468.163 478.291 468.109 477.799 468.109C476.923 468.109 475.281 468.382 473.585 468.765C471.943 469.039 470.247 469.422 469.152 469.422C455.088 469.422 443.104 458.86 443.104 444.796C443.104 430.732 454.65 418.802 469.152 418.802C470.794 418.802 472.49 419.185 473.968 419.459C475.391 419.732 476.649 420.115 477.306 420.115C478.565 420.115 479.112 419.897 479.605 418.747H479.823V432.647H479.605C477.416 429.747 472.6 427.722 469.152 427.722C459.63 427.722 452.735 435.602 452.735 444.796C452.735 453.99 461.217 460.502 469.152 460.502C473.475 460.502 477.525 458.477 479.823 455.358V469.148Z" fill="#F08900"/>
<path d="M527.047 469.15C525.898 468.165 525.788 467.617 524.366 467.617C521.848 467.617 516.376 469.478 511.889 469.478C497.824 469.478 485.84 458.533 485.84 444.907C485.84 430.35 497.387 418.803 511.396 418.803C527.649 418.803 537.718 431.992 537.718 446.549C537.718 447.205 537.937 447.807 538.211 448.464H495.417C497.824 456.891 504.665 460.503 513.311 460.503C518.291 460.503 523.381 458.971 527.047 455.578V469.15ZM527.047 439.544C525.515 432.484 519.057 427.723 511.779 427.723C503.68 427.723 497.934 432.101 495.526 439.544H527.047Z" fill="#F08900"/>
<path d="M187.868 0C84.3846 0 0.164172 84.2205 0.164172 187.759H0V361.234L7.7161 359.757C22.6558 356.856 47.2817 346.24 59.704 324.788C93.3047 356.254 138.397 375.517 187.923 375.517C291.461 375.517 375.681 291.297 375.681 187.759C375.681 84.2205 291.406 0 187.868 0ZM187.868 334.146C107.15 334.146 41.4809 268.477 41.4809 187.759C41.4809 107.04 107.15 41.3167 187.868 41.3167C268.586 41.3167 334.255 106.986 334.255 187.704C334.255 268.422 268.586 334.091 187.868 334.091V334.146Z" fill="#16978A"/>
<path d="M614.005 187.759C614.005 84.2205 529.785 0 426.301 0C381.154 0 339.618 16.0342 307.222 42.7396C316.634 50.6746 326.485 60.5249 336.007 72.6737C360.906 53.0824 392.263 41.3715 426.301 41.3715C507.02 41.3715 572.689 107.04 572.689 187.759C572.689 268.477 507.02 334.146 426.301 334.146C345.583 334.146 279.914 268.477 279.914 187.759C279.914 156.183 289.984 126.905 307.112 102.936C298.466 91.1704 288.889 80.937 278.327 72.4C253.428 104.249 238.598 144.308 238.598 187.759C238.598 291.297 322.818 375.517 426.356 375.517C475.882 375.517 520.974 356.254 554.575 324.788C566.997 346.24 591.623 356.856 606.563 359.757L614.279 361.234V187.759H614.115H614.005Z" fill="#F08900"/>
</g>
<defs>
<clipPath id="clip0_655_2613">
<rect width="614.169" height="490" fill="white"/>
</clipPath>
</defs>
</svg>
